<svg xmlns="http://www.w3.org/2000/svg" viewBox="0 0 512 512"><path xmlns="http://www.w3.org/2000/svg" fill="#8e8f94" d="M345 113c-26-34-53-68-75-105a16 16 0 00-28 0c-22 37-49 71-75 105-53 67-103 131-103 207a192 192 0 00384 0c0-76-50-140-103-207zm-89 367c-88 0-160-72-160-160 0-65 47-124 96-187 22-28 44-56 64-87 20 31 42 59 64 87 49 63 96 122 96 187 0 88-72 160-160 160z" data-original="#000000"/><path xmlns="http://www.w3.org/2000/svg" fill="#8e8f94" d="M208 192a48 48 0 100 96 48 48 0 000-96zm0 64a16 16 0 110-32 16 16 0 010 32zM304 352a48 48 0 100 96 48 48 0 000-96zm0 64c-9 0-16-7-16-16s7-16 16-16 16 7 16 16-7 16-16 16zM347 229c-6-7-16-7-22 0L165 389a16 16 0 0022 22l160-160c7-6 7-16 0-22z" data-original="#000000"/></svg>